#!OML:ASF H:\Martial Arts Walks\Project 1\Capture day 1\Session 1\male.ASF
:FULLY-SPECIFIED
:DEGREES
2370
root -5.42578 12.193 -33.9392 -130.509 77.509 -143.262
lowerback 22.441 4.25252 1.10861
upperback -0.57116 6.14879 1.20636
thorax -13.276 2.81905 -1.32004
lowerneck -0.502427 -3.50754 -6.07637
upperneck -2.0239 -4.55662 7.92732
head -0.20478 -2.26745 3.62493
rclavicle -6.54747e-015 -2.16427e-014
rhumerus -11.8792 52.6038 -73.1167
rradius 104.563
rwrist 15.4197
rhand -20.1531 -23.8915
rfingers 7.12502
rthumb 6.19205 -53.781
lclavicle -6.54747e-015 -2.16427e-014
lhumerus 0.302809 -3.40411 75.8125
lradius 92.0118
lwrist 30.1022
lhand -29.249 15.6063
lfingers 7.12502
lthumb -2.59219 45.5703
rfemur -56.01 -34.7289 1.50597
rtibia 82.7193
rfoot -19.9995 -1.26641
rtoes -35.759
lfemur -77.4406 27.3537 -3.19023
ltibia 97.2004
lfoot -29.2736 -0.918295
ltoes -17.8233
2371
root -5.47034 12.3213 -34.0213 -128.551 77.803 -141.688
lowerback 22.4304 4.20571 1.29782
upperback -0.512906 6.13808 1.22125
thorax -13.1837 2.80531 -1.40209
lowerneck -0.300828 -3.96184 -6.40733
upperneck -2.34243 -5.15264 8.47225
head -0.271533 -2.57064 3.88181
rclavicle 4.51179e-014 -3.04513e-014
rhumerus -12.271 51.9897 -73.3095
rradius 104.261
rwrist 15.513
rhand -19.9045 -23.7716
rfingers 7.12502
rthumb 6.43203 -53.6539
lclavicle 4.51179e-014 -3.04513e-014
lhumerus 0.730507 -4.87131 76.2631
lradius 90.5734
lwrist 29.8727
lhand -29.4051 15.4906
lfingers 7.12502
lthumb -2.74292 45.4528
rfemur -55.9937 -34.0366 1.88446
rtibia 81.0165
rfoot -18.9411 -0.973984
rtoes -35.2301
lfemur -77.033 26.7102 -3.46539
ltibia 96.2649
lfoot -28.8078 0.160538
ltoes -17.9514
2372
root -5.51504 12.4529 -34.1037 -126.377 78.2713 -139.989
lowerback 22.2515 3.87494 0.93506
upperback -0.487563 5.65025 1.55416
thorax -13.1351 2.62522 -0.652194
lowerneck 0.0939969 -4.13266 -7.34259
upperneck -2.66567 -5.38964 8.92936
head -0.38605 -2.69522 4.24028
rclavicle -2.51369e-014 9.03849e-015
rhumerus -12.1087 52.8093 -73.1711
rradius 103.962
rwrist 15.4667
rhand -20.0196 -23.5097
rfingers 7.12502
rthumb 6.32092 -53.3954
lclavicle -2.51369e-014 9.03849e-015
lhumerus 0.484602 -4.9361 76.6638
lradius 89.268
lwrist 29.5346
lhand -29.4494 15.2172
lfingers 7.12502
lthumb -2.78572 45.1788
rfemur -56.1546 -33.2982 2.21788
rtibia 79.2428
rfoot -17.7757 -0.662827
rtoes -34.7775
lfemur -76.6441 26.1603 -3.88292
ltibia 95.2765
lfoot -28.2971 1.05629
ltoes -17.5241
2373
root -5.56092 12.5872 -34.1936 -124.694 78.8636 -138.724
lowerback 22.2573 3.75916 0.745946
upperback -0.461435 5.44767 1.5635
thorax -13.1277 2.54556 -0.46803
lowerneck 0.450611 -4.50025 -7.63405
upperneck -3.147 -5.87028 9.48654
head -0.535078 -2.94592 4.51125
rclavicle 1.01532e-013 2.67738e-014
rhumerus -12.5204 52.4691 -73.8023
rradius 103.406
rwrist 15.5854
rhand -20.1753 -23.1404
rfingers 7.12502
rthumb 6.17053 -53.0305
lclavicle 1.01532e-013 2.67738e-014
lhumerus 0.619866 -6.01051 76.9669
lradius 87.9043
lwrist 29.1823
lhand -29.7681 14.7527
lfingers 7.12502
lthumb -3.09353 44.7101
rfemur -56.1886 -32.6806 2.27561
rtibia 77.39
rfoot -16.536 -0.220208
rtoes -34.1434
lfemur -76.1445 25.4762 -4.48575
ltibia 94.239
lfoot -27.7282 2.14508
ltoes -17.3371
